<?xml version="1.0" encoding="utf-8"?>
<!-- Generated by IcoMoon.io -->
<!DOCTYPE svg PUBLIC "-//W3C//DTD SVG 1.1//EN" "http://www.w3.org/Graphics/SVG/1.1/DTD/svg11.dtd">
<svg version="1.1" xmlns="http://www.w3.org/2000/svg" xmlns:xlink="http://www.w3.org/1999/xlink" width="36" height="36" viewBox="0 0 36 36">
<g>
</g>
	<path d="M3.19 24.219c1.406 0.369 4.713 0.365 9.549 0.493-0.228 1.055-0.281 2.007-0.281 3.697 0 4.037 2.941 7.591 5.542 7.591 1.837 0 3.351-1.502 3.375-3.349 0.025-2.266 0.726-6.178 4.5-8.163 0.277-0.146 1.069-0.537 1.185-0.587l-0.060-0.051c0.591 0.51 1.41 0.9 2.25 0.9h3.375c1.861 0 3.375-1.514 3.375-3.375v-18c0-1.861-1.514-3.375-3.375-3.375h-3.375c-1.339 0-2.459 0.809-3.002 1.943-0.014-0.004-0.037-0.011-0.053-0.014-0.074-0.020-0.162-0.042-0.269-0.070-0.020-0.006-0.030-0.008-0.052-0.014-0.648-0.161-1.896-0.459-4.562-1.072-0.571-0.13-3.591-0.774-6.719-0.774h-6.15c-1.874 0-3.225 0.721-4.030 2.169-0.011 0.022-0.27 0.528-0.482 1.211-0.159 0.514-0.217 1.242-0.026 1.98-1.208 0.83-1.597 2.086-1.851 2.902-0.424 1.34-0.297 2.347-0.002 3.068-0.679 0.641-1.259 1.619-1.503 3.112-0.152 0.925 0.011 1.876 0.438 2.668-0.637 0.715-0.927 1.616-0.961 2.448l-0.013 0.235c-0.008 0.147-0.015 0.238-0.015 0.563 0 1.421 0.984 3.233 3.191 3.863zM28.125 3.375c0-0.622 0.503-1.125 1.125-1.125h3.375c0.622 0 1.125 0.503 1.125 1.125v18c0 0.622-0.503 1.125-1.125 1.125h-3.375c-0.622 0-1.125-0.503-1.125-1.125v-18zM2.276 19.648c0.022-0.556 0.255-1.648 2.224-1.648 1.688 0 2.25 0 2.25 0 0.312 0 0.563-0.252 0.563-0.563s-0.251-0.563-0.563-0.563c0 0-0.493 0-2.18 0s-1.909-1.399-1.8-2.074c0.139-0.839 0.533-2.426 2.433-2.426 1.898 0 2.672 0 2.672 0 0.312 0 0.563-0.251 0.563-0.563 0-0.309-0.251-0.563-0.563-0.563 0 0-1.337 0-2.215 0-1.899 0-1.731-1.448-1.459-2.312 0.359-1.135 0.578-2.188 2.971-2.188 0.809 0 1.835 0 1.835 0 0.312 0 0.563-0.251 0.563-0.563 0-0.309-0.251-0.563-0.563-0.563 0 0-0.78 0-1.764 0-1.231 0-1.288-1.164-1.16-1.582 0.141-0.457 0.307-0.795 0.314-0.811 0.34-0.613 0.888-0.982 2.048-0.982h6.15c3.089 0 6.154 0.701 6.233 0.719 4.673 1.077 4.92 1.16 5.213 1.243 0 0 0.952 0.161 0.952 0.991l0.008 15.538c0 0.528-0.336 1.005-0.893 1.172-0.070 0.027-0.164 0.056-0.232 0.084-5.139 2.128-6.704 6.795-6.75 10.627-0.007 0.539-0.422 1.125-1.125 1.125-1.189 0-3.292-2.387-3.292-5.341 0-2.667 0.108-3.129 1.042-5.909-11.25 0-11.171-0.162-12.163-0.422-1.231-0.352-1.336-1.371-1.336-1.722 0-0.386 0.011-0.33 0.026-0.708zM30.938 6.75c0.931 0 1.688-0.756 1.688-1.688s-0.756-1.688-1.688-1.688-1.688 0.756-1.688 1.688 0.756 1.688 1.688 1.688zM30.938 4.5c0.309 0 0.563 0.253 0.563 0.563s-0.253 0.563-0.563 0.563-0.563-0.253-0.563-0.563 0.253-0.563 0.563-0.563z" fill="#000000"></path>
</svg>
