<?xml version="1.0" encoding="utf-8"?>
<!-- Generated by IcoMoon.io -->
<!DOCTYPE svg PUBLIC "-//W3C//DTD SVG 1.1//EN" "http://www.w3.org/Graphics/SVG/1.1/DTD/svg11.dtd">

<svg version="1.1" xmlns="http://www.w3.org/2000/svg" xmlns:xlink="http://www.w3.org/1999/xlink" width="284" height="14" viewBox="0 0 284 14">
<defs>
<g id="icon-thumbs-up">
	<path class="path1" d="M12.688 7.875c0.998 0 0.438 2.625-0.438 2.625 0.438 0 0 2.188-0.875 2.188 0 0.875-0.875 1.313-1.75 1.313-3.696 0-2.396-0.925-6.125-1.313v-7c3.294-0.988 6.563-3.465 6.563-5.688 0.725 0 2.625 0.875 0 5.25 0 0 2.188 0 2.625 0 1.313 0 0.875 2.625 0 2.625zM2.625 5.688v7h0.875v0.438h-1.75c-0.481 0-0.875-0.591-0.875-1.313v-5.25c0-0.722 0.394-1.313 0.875-1.313h1.75v0.438h-0.875z"></path>
</g>
<g id="icon-thumbs-up2">
	<path class="path1" d="M1.313 6.125c-0.998 0-0.438-2.625 0.438-2.625-0.438 0 0-2.188 0.875-2.188 0-0.875 0.875-1.313 1.75-1.313 3.696 0 2.396 0.925 6.125 1.313v7c-3.294 0.988-6.563 3.465-6.563 5.688-0.725 0-2.625-0.875 0-5.25 0 0-2.188 0-2.625 0-1.313 0-0.875-2.625 0-2.625zM11.375 8.313v-7h-0.875v-0.438h1.75c0.481 0 0.875 0.591 0.875 1.313v5.25c0 0.722-0.394 1.313-0.875 1.313h-1.75v-0.438h0.875z"></path>
</g>
<g id="icon-smiley">
	<path class="path1" d="M7 14c3.866 0 7-3.134 7-7s-3.134-7-7-7-7 3.134-7 7 3.134 7 7 7zM7 1.313c3.141 0 5.688 2.546 5.688 5.688s-2.546 5.688-5.688 5.688-5.688-2.546-5.688-5.688 2.546-5.688 5.688-5.688zM3.5 4.375c0-0.483 0.392-0.875 0.875-0.875s0.875 0.392 0.875 0.875c0 0.483-0.392 0.875-0.875 0.875s-0.875-0.392-0.875-0.875zM8.75 4.375c0-0.483 0.392-0.875 0.875-0.875s0.875 0.392 0.875 0.875c0 0.483-0.392 0.875-0.875 0.875s-0.875-0.392-0.875-0.875zM9.626 8.576l1.126 0.675c-0.765 1.272-2.159 2.124-3.752 2.124s-2.987-0.851-3.752-2.124l1.126-0.675c0.536 0.891 1.511 1.487 2.626 1.487s2.091-0.596 2.626-1.487z"></path>
</g>
<g id="icon-smiley2">
	<path class="path1" d="M7 0c-3.866 0-7 3.134-7 7s3.134 7 7 7 7-3.134 7-7-3.134-7-7-7zM9.625 3.5c0.483 0 0.875 0.392 0.875 0.875s-0.392 0.875-0.875 0.875-0.875-0.392-0.875-0.875 0.392-0.875 0.875-0.875zM4.375 3.5c0.483 0 0.875 0.392 0.875 0.875s-0.392 0.875-0.875 0.875-0.875-0.392-0.875-0.875 0.392-0.875 0.875-0.875zM7 11.375c-1.593 0-2.987-0.851-3.752-2.124l1.126-0.675c0.536 0.891 1.511 1.487 2.626 1.487s2.091-0.596 2.626-1.487l1.126 0.675c-0.765 1.272-2.159 2.124-3.752 2.124z"></path>
</g>
<g id="icon-sad">
	<path class="path1" d="M7 14c3.866 0 7-3.134 7-7s-3.134-7-7-7-7 3.134-7 7 3.134 7 7 7zM7 1.313c3.141 0 5.688 2.546 5.688 5.688s-2.546 5.688-5.688 5.688-5.688-2.546-5.688-5.688 2.546-5.688 5.688-5.688zM3.5 4.375c0-0.483 0.392-0.875 0.875-0.875s0.875 0.392 0.875 0.875c0 0.483-0.392 0.875-0.875 0.875s-0.875-0.392-0.875-0.875zM8.75 4.375c0-0.483 0.392-0.875 0.875-0.875s0.875 0.392 0.875 0.875c0 0.483-0.392 0.875-0.875 0.875s-0.875-0.392-0.875-0.875zM4.374 10.674l-1.126-0.675c0.765-1.272 2.159-2.124 3.752-2.124s2.987 0.851 3.752 2.124l-1.126 0.675c-0.536-0.891-1.511-1.487-2.626-1.487s-2.091 0.596-2.626 1.487z"></path>
</g>
<g id="icon-sad2">
	<path class="path1" d="M7 0c-3.866 0-7 3.134-7 7s3.134 7 7 7 7-3.134 7-7-3.134-7-7-7zM9.625 3.5c0.483 0 0.875 0.392 0.875 0.875s-0.392 0.875-0.875 0.875-0.875-0.392-0.875-0.875 0.392-0.875 0.875-0.875zM4.375 3.5c0.483 0 0.875 0.392 0.875 0.875s-0.392 0.875-0.875 0.875-0.875-0.392-0.875-0.875 0.392-0.875 0.875-0.875zM9.626 10.674c-0.536-0.891-1.511-1.487-2.626-1.487s-2.091 0.596-2.626 1.487l-1.126-0.675c0.765-1.272 2.159-2.124 3.752-2.124s2.987 0.851 3.752 2.124l-1.126 0.675z"></path>
</g>
<g id="icon-wondering">
	<path class="path1" d="M7 14c3.866 0 7-3.134 7-7s-3.134-7-7-7-7 3.134-7 7 3.134 7 7 7zM7 1.313c3.141 0 5.688 2.546 5.688 5.688s-2.546 5.688-5.688 5.688-5.688-2.546-5.688-5.688 2.546-5.688 5.688-5.688zM10.196 8.225l0.307 1.050-5.975 1.75-0.307-1.050zM3.5 4.375c0-0.483 0.392-0.875 0.875-0.875s0.875 0.392 0.875 0.875c0 0.483-0.392 0.875-0.875 0.875s-0.875-0.392-0.875-0.875zM8.75 4.375c0-0.483 0.392-0.875 0.875-0.875s0.875 0.392 0.875 0.875c0 0.483-0.392 0.875-0.875 0.875s-0.875-0.392-0.875-0.875z"></path>
</g>
<g id="icon-wondering2">
	<path class="path1" d="M7 0c-3.866 0-7 3.134-7 7s3.134 7 7 7 7-3.134 7-7-3.134-7-7-7zM9.625 3.5c0.483 0 0.875 0.392 0.875 0.875s-0.392 0.875-0.875 0.875-0.875-0.392-0.875-0.875 0.392-0.875 0.875-0.875zM3.5 4.375c0-0.483 0.392-0.875 0.875-0.875s0.875 0.392 0.875 0.875-0.392 0.875-0.875 0.875-0.875-0.392-0.875-0.875zM4.529 11.025l-0.307-1.050 5.975-1.75 0.307 1.050-5.975 1.75z"></path>
</g>
<g id="icon-like">
	<path class="path1" d="M12.759 4.582c-0.547-0.144-1.833-0.142-3.713-0.192 0.089-0.41 0.109-0.781 0.109-1.438 0-1.57-1.144-2.952-2.155-2.952-0.714 0-1.303 0.584-1.313 1.302-0.010 0.881-0.282 2.403-1.75 3.174-0.108 0.057-0.416 0.209-0.461 0.228l0.023 0.020c-0.23-0.198-0.548-0.35-0.875-0.35h-1.313c-0.724 0-1.313 0.589-1.313 1.313v7c0 0.724 0.589 1.313 1.313 1.313h1.313c0.521 0 0.956-0.315 1.167-0.756 0.005 0.002 0.014 0.004 0.021 0.005 0.029 0.008 0.063 0.016 0.105 0.027 0.008 0.002 0.012 0.003 0.020 0.005 0.252 0.063 0.737 0.179 1.774 0.417 0.222 0.051 1.397 0.301 2.613 0.301h2.392c0.729 0 1.254-0.28 1.567-0.844 0.004-0.009 0.105-0.205 0.187-0.471 0.062-0.2 0.084-0.483 0.010-0.77 0.47-0.323 0.621-0.811 0.72-1.129 0.165-0.521 0.115-0.913 0.001-1.193 0.264-0.249 0.49-0.63 0.585-1.21 0.059-0.36-0.004-0.73-0.17-1.038 0.248-0.278 0.361-0.628 0.374-0.952l0.005-0.091c0.003-0.057 0.006-0.093 0.006-0.219 0-0.553-0.383-1.257-1.241-1.502zM3.063 12.688c0 0.242-0.196 0.438-0.438 0.438h-1.313c-0.242 0-0.438-0.196-0.438-0.438v-7c0-0.242 0.196-0.438 0.438-0.438h1.313c0.242 0 0.438 0.196 0.438 0.438v7zM13.115 6.359c-0.009 0.216-0.099 0.641-0.865 0.641-0.656 0-0.875 0-0.875 0-0.121 0-0.219 0.098-0.219 0.219s0.098 0.219 0.219 0.219c0 0 0.192 0 0.848 0s0.742 0.544 0.7 0.807c-0.054 0.326-0.207 0.943-0.946 0.943s-1.039 0-1.039 0c-0.121 0-0.219 0.098-0.219 0.219s0.098 0.219 0.219 0.219c0 0 0.52 0 0.861 0 0.738 0 0.673 0.563 0.567 0.899-0.14 0.441-0.225 0.851-1.155 0.851-0.315 0-0.714 0-0.714 0-0.121 0-0.219 0.098-0.219 0.219s0.098 0.219 0.219 0.219c0 0 0.303 0 0.686 0 0.479 0 0.501 0.453 0.451 0.615-0.055 0.178-0.119 0.309-0.122 0.315-0.132 0.238-0.345 0.382-0.796 0.382h-2.392c-1.201 0-2.393-0.273-2.424-0.28-1.817-0.419-1.913-0.451-2.027-0.483 0 0-0.37-0.063-0.37-0.385l-0.003-6.043c0-0.205 0.131-0.391 0.347-0.456 0.027-0.010 0.064-0.022 0.090-0.033 1.998-0.828 2.607-2.643 2.625-4.133 0.003-0.21 0.164-0.438 0.437-0.438 0.462 0 1.28 0.928 1.28 2.077 0 1.037-0.042 1.217-0.405 2.298 4.375 0 4.344 0.063 4.73 0.164 0.479 0.137 0.52 0.533 0.52 0.67 0 0.15-0.004 0.128-0.010 0.275zM1.969 11.375c-0.362 0-0.656 0.294-0.656 0.656s0.294 0.656 0.656 0.656 0.656-0.294 0.656-0.656-0.294-0.656-0.656-0.656zM1.969 12.25c-0.12 0-0.219-0.098-0.219-0.219s0.098-0.219 0.219-0.219 0.219 0.098 0.219 0.219-0.098 0.219-0.219 0.219z"></path>
</g>
<g id="icon-like2">
	<path class="path1" d="M1.241 9.418c0.547 0.143 1.833 0.142 3.713 0.192-0.089 0.41-0.109 0.78-0.109 1.438 0 1.57 1.144 2.952 2.155 2.952 0.714 0 1.303-0.584 1.313-1.302 0.010-0.881 0.282-2.403 1.75-3.175 0.108-0.057 0.416-0.209 0.461-0.228l-0.023-0.020c0.23 0.198 0.548 0.35 0.875 0.35h1.313c0.724 0 1.313-0.589 1.313-1.313v-7c0-0.724-0.589-1.313-1.313-1.313h-1.313c-0.521 0-0.956 0.315-1.167 0.756-0.005-0.002-0.014-0.004-0.021-0.005-0.029-0.008-0.063-0.016-0.105-0.027-0.008-0.002-0.012-0.003-0.020-0.005-0.252-0.063-0.737-0.178-1.774-0.417-0.222-0.051-1.397-0.301-2.613-0.301h-2.392c-0.729 0-1.254 0.28-1.567 0.843-0.004 0.009-0.105 0.205-0.187 0.471-0.062 0.2-0.084 0.483-0.010 0.77-0.47 0.323-0.621 0.811-0.72 1.129-0.165 0.521-0.116 0.913-0.001 1.193-0.264 0.249-0.49 0.63-0.585 1.21-0.059 0.36 0.004 0.73 0.17 1.038-0.248 0.278-0.36 0.628-0.374 0.952l-0.005 0.091c-0.003 0.057-0.006 0.093-0.006 0.219 0 0.553 0.383 1.257 1.241 1.502zM10.938 1.313c0-0.242 0.196-0.438 0.438-0.438h1.313c0.242 0 0.438 0.196 0.438 0.438v7c0 0.242-0.196 0.438-0.438 0.438h-1.313c-0.242 0-0.438-0.196-0.438-0.438v-7zM0.885 7.641c0.009-0.216 0.099-0.641 0.865-0.641 0.656 0 0.875 0 0.875 0 0.121 0 0.219-0.098 0.219-0.219s-0.098-0.219-0.219-0.219c0 0-0.192 0-0.848 0s-0.742-0.544-0.7-0.807c0.054-0.326 0.207-0.943 0.946-0.943s1.039 0 1.039 0c0.121 0 0.219-0.098 0.219-0.219s-0.098-0.219-0.219-0.219c0 0-0.52 0-0.861 0-0.738 0-0.673-0.563-0.567-0.899 0.14-0.441 0.225-0.851 1.155-0.851 0.315 0 0.714 0 0.714 0 0.121 0 0.219-0.098 0.219-0.219s-0.098-0.219-0.219-0.219c0 0-0.303 0-0.686 0-0.479 0-0.501-0.453-0.451-0.615 0.055-0.178 0.119-0.309 0.122-0.315 0.132-0.238 0.345-0.382 0.796-0.382h2.392c1.201 0 2.393 0.273 2.424 0.28 1.817 0.419 1.913 0.451 2.027 0.483 0 0 0.37 0.063 0.37 0.385l0.003 6.043c0 0.205-0.131 0.391-0.347 0.456-0.027 0.011-0.064 0.022-0.090 0.033-1.999 0.828-2.607 2.643-2.625 4.133-0.003 0.21-0.164 0.438-0.438 0.438-0.462 0-1.28-0.928-1.28-2.077 0-1.037 0.042-1.217 0.405-2.298-4.375 0-4.344-0.063-4.73-0.164-0.479-0.137-0.52-0.533-0.52-0.67 0-0.15 0.004-0.128 0.010-0.275zM12.031 2.625c0.362 0 0.656-0.294 0.656-0.656s-0.294-0.656-0.656-0.656-0.656 0.294-0.656 0.656 0.294 0.656 0.656 0.656zM12.031 1.75c0.12 0 0.219 0.098 0.219 0.219s-0.098 0.219-0.219 0.219-0.219-0.098-0.219-0.219 0.098-0.219 0.219-0.219z"></path>
</g>
</defs>

<g fill="#000000">
	<use xlink:href="#icon-thumbs-up" transform="translate(0 0)"></use>
	<use xlink:href="#icon-thumbs-up2" transform="translate(30 0)"></use>
	<use xlink:href="#icon-smiley" transform="translate(60 0)"></use>
	<use xlink:href="#icon-smiley2" transform="translate(90 0)"></use>
	<use xlink:href="#icon-sad" transform="translate(120 0)"></use>
	<use xlink:href="#icon-sad2" transform="translate(150 0)"></use>
	<use xlink:href="#icon-wondering" transform="translate(180 0)"></use>
	<use xlink:href="#icon-wondering2" transform="translate(210 0)"></use>
	<use xlink:href="#icon-like" transform="translate(240 0)"></use>
	<use xlink:href="#icon-like2" transform="translate(270 0)"></use>
</g>

</svg>
